<?xml version="1.0"?>
<svg xmlns="http://www.w3.org/2000/svg" height="512px" viewBox="0 0 512 512" width="512px"><g><g><path d="m496 88h-480a8 8 0 0 0 -8 8v32a8 8 0 0 0 8 8h24v280a8 8 0 0 0 8 8h24a8 8 0 0 0 8-8v-96h352v96a8 8 0 0 0 8 8h24a8 8 0 0 0 8-8v-280h24a8 8 0 0 0 8-8v-32a8 8 0 0 0 -8-8zm-432 320h-8v-272h8zm368-104h-352v-104h352zm0-120h-352v-48h352zm24 224h-8v-272h8zm32-288h-464v-16h464z" data-original="#000000" class="active-path" data-old_color="#000000" fill="#FFFFFF"/><path d="m232 168h48a8 8 0 0 0 0-16h-48a8 8 0 0 0 0 16z" data-original="#000000" class="active-path" data-old_color="#000000" fill="#FFFFFF"/></g></g> </svg>
