<?xml version="1.0"?>
<svg xmlns="http://www.w3.org/2000/svg" xmlns:xlink="http://www.w3.org/1999/xlink" version="1.1" id="Capa_1" x="0px" y="0px" viewBox="0 0 512 512" style="enable-background:new 0 0 512 512;" xml:space="preserve" width="512px" height="512px"><g><g>
	<g>
		<path d="M418.887,173.863L333.74,133.32l-12.915,27.126l38.214,18.195l-52.835,4.933l-99.722-20.492L100.8,181.03    c-0.088-1.568-0.21-3.194-0.378-4.87c-1.853-18.501-8.305-33.752-18.66-44.107s-25.607-16.807-44.108-18.661    c-12.887-1.29-22.992,0.023-24.1,0.178l-11.251,1.562L0.74,126.383c-0.154,1.11-1.468,11.214-0.177,24.099    c1.853,18.501,8.305,33.752,18.66,44.107c1.483,1.483,3.078,2.877,4.758,4.197c-1.679,1.321-3.274,2.714-4.757,4.197    C8.869,213.339,2.416,228.59,0.563,247.091c-1.291,12.886,0.023,22.991,0.177,24.1l1.562,11.251l11.251,1.562    c0.751,0.104,5.62,0.739,12.684,0.739c3.375,0,7.251-0.145,11.417-0.563c18.501-1.854,33.753-8.306,44.107-18.661    c10.355-10.355,16.808-25.606,18.66-44.107c0.359-3.576,0.511-6.925,0.549-9.94l104.985-17.829l70.464,14.479l-46.24,50.529    c-1.44-1.316-2.981-2.664-4.638-4.019c-14.392-11.771-29.739-17.993-44.384-17.993c-14.644,0-29.992,6.222-44.384,17.993    c-10.025,8.199-16.241,16.274-16.917,17.167l-6.852,9.061l6.852,9.06c0.676,0.894,6.892,8.968,16.916,17.168    c14.393,11.772,29.74,17.994,44.384,17.994c2.097,0,4.21-0.142,6.331-0.396c-0.253,2.121-0.396,4.234-0.396,6.331    c0,14.644,6.222,29.992,17.994,44.384c8.2,10.025,16.274,16.241,17.167,16.917l9.06,6.851l9.06-6.851    c0.893-0.676,8.968-6.892,17.167-16.917c11.772-14.392,17.994-29.739,17.994-44.384c0-14.644-6.222-29.992-17.994-44.384    c-2.055-2.513-4.101-4.785-6.03-6.791l61.028-66.689l102.103-9.533l94.167,10.052L512,183.8L418.887,173.863z M60.517,244.278    c-7.487,7.487-20.275,9.896-30.408,10.363c0.478-10.081,2.883-22.938,10.358-30.412c7.484-7.485,20.265-9.894,30.41-10.36    C70.41,224.013,68,236.794,60.517,244.278z M40.467,173.345c-7.486-7.486-9.895-20.275-10.362-30.407    c10.081,0.478,22.938,2.883,30.412,10.358c7.483,7.484,9.893,20.263,10.36,30.407C60.796,183.224,47.942,180.82,40.467,173.345z     M181.158,295.04c-10.588,0-21.336-7.341-28.831-14.176c7.503-6.844,18.247-14.179,28.831-14.179    c10.582,0,21.324,7.332,28.827,14.176C202.518,287.652,191.728,295.04,181.158,295.04z M231.316,359.851    c-6.844-7.503-14.18-18.248-14.18-28.831c0-10.582,7.333-21.325,14.177-28.827c6.791,7.466,14.179,18.256,14.179,28.827    C245.492,341.607,238.152,352.356,231.316,359.851z" data-original="#000000" class="active-path" data-old_color="#000000" fill="#FFFFFF"/>
	</g>
</g></g> </svg>
