<?xml version="1.0"?>
<svg xmlns="http://www.w3.org/2000/svg" id="Outline" viewBox="0 0 64 64" width="512px" height="512px"><g><g><path d="M12,8a1,1,0,0,0,0,2H52a1,1,0,0,0,0-2Z" data-original="#000000" class="active-path" data-old_color="#000000" fill="#FFFFFF"/><path d="M56,45a1,1,0,0,0-1,1v4H12a1,1,0,0,0,0,2H55v7.382l-2.553-1.277a1,1,0,0,0-.894,0l-4,2a1,1,0,0,0,.894,1.79L52,60.118,55.553,61.9A1,1,0,0,0,57,61V46A1,1,0,0,0,56,45Z" data-original="#000000" class="active-path" data-old_color="#000000" fill="#FFFFFF"/><path d="M43.553,58.105,40,59.882l-3.553-1.777a1,1,0,0,0-.894,0L32,59.882l-3.553-1.777a1,1,0,0,0-.894,0L24,59.882l-3.553-1.777a1,1,0,0,0-.894,0L16,59.882l-3.553-1.777a1,1,0,0,0-.894,0L9,59.382l0-8.291,1-11a1.039,1.039,0,0,0-.008-.243L8.005,26.959,8.929,14H52a1,1,0,0,0,0-2H9V4.618L11.553,5.9a1,1,0,0,0,.894,0L16,4.118,19.553,5.9a1,1,0,0,0,.894,0L24,4.118,27.553,5.9a1,1,0,0,0,.894,0L32,4.118,35.553,5.9a1,1,0,0,0,.894,0L40,4.118,43.553,5.9a1,1,0,0,0,.894,0L48,4.118,51.553,5.9a1,1,0,0,0,.894,0L55,4.618V13c0,.024.012.045.014.069s-.008.048,0,.073l1.98,13.863L55.009,41.868a1,1,0,1,0,1.982.264l2-15a1.006,1.006,0,0,0,0-.274L57,12.927V3a1,1,0,0,0-1.447-.895L52,3.882,48.447,2.105a1,1,0,0,0-.894,0L44,3.882,40.447,2.105a1,1,0,0,0-.894,0L36,3.882,32.447,2.105a1,1,0,0,0-.894,0L28,3.882,24.447,2.105a1,1,0,0,0-.894,0L20,3.882,16.447,2.105a1,1,0,0,0-.894,0L12,3.882,8.447,2.105A1,1,0,0,0,7,3l0,9.929-1,14a.981.981,0,0,0,.01.223L7.993,40.031,7,51V61a1,1,0,0,0,1.447.9L12,60.118,15.553,61.9a1,1,0,0,0,.894,0L20,60.118,23.553,61.9a1,1,0,0,0,.894,0L28,60.118,31.553,61.9a1,1,0,0,0,.894,0L36,60.118,39.553,61.9a1,1,0,0,0,.894,0l4-2a1,1,0,1,0-.894-1.79Z" data-original="#000000" class="active-path" data-old_color="#000000" fill="#FFFFFF"/><path d="M50,28a7.991,7.991,0,0,0-13-6.235,7.965,7.965,0,0,0-10,0A7.918,7.918,0,0,0,22,20a8,8,0,1,0,1.607,15.837,1,1,0,1,0-.4-1.959A6,6,0,1,1,22,22a5.938,5.938,0,0,1,3.605,1.214A7.985,7.985,0,0,0,32,36a8.054,8.054,0,0,0,1.607-.163,1,1,0,1,0-.4-1.959A6,6,0,1,1,32,22a5.938,5.938,0,0,1,3.6,1.214A7.995,7.995,0,1,0,50,28Zm-8,6a6,6,0,1,1,6-6A6.006,6.006,0,0,1,42,34Z" data-original="#000000" class="active-path" data-old_color="#000000" fill="#FFFFFF"/><circle cx="44" cy="26" r="1" data-original="#000000" class="active-path" data-old_color="#000000" fill="#FFFFFF"/><circle cx="44" cy="30" r="1" data-original="#000000" class="active-path" data-old_color="#000000" fill="#FFFFFF"/><circle cx="40" cy="28" r="1" data-original="#000000" class="active-path" data-old_color="#000000" fill="#FFFFFF"/><circle cx="31" cy="25" r="1" data-original="#000000" class="active-path" data-old_color="#000000" fill="#FFFFFF"/><circle cx="30" cy="30" r="1" data-original="#000000" class="active-path" data-old_color="#000000" fill="#FFFFFF"/><circle cx="21" cy="31" r="1" data-original="#000000" class="active-path" data-old_color="#000000" fill="#FFFFFF"/><circle cx="19" cy="28" r="1" data-original="#000000" class="active-path" data-old_color="#000000" fill="#FFFFFF"/><circle cx="22" cy="25" r="1" data-original="#000000" class="active-path" data-old_color="#000000" fill="#FFFFFF"/><path d="M44,41a1,1,0,0,0-1-1H22a1,1,0,0,0,0,2H43A1,1,0,0,0,44,41Z" data-original="#000000" class="active-path" data-old_color="#000000" fill="#FFFFFF"/><path d="M22,45a1,1,0,0,0,0,2h9a1,1,0,0,0,0-2Z" data-original="#000000" class="active-path" data-old_color="#000000" fill="#FFFFFF"/><path d="M36,45a1,1,0,0,0,0,2h3a1,1,0,0,0,0-2Z" data-original="#000000" class="active-path" data-old_color="#000000" fill="#FFFFFF"/><path d="M52,56a1,1,0,0,0,0-2H12a1,1,0,0,0,0,2Z" data-original="#000000" class="active-path" data-old_color="#000000" fill="#FFFFFF"/></g></g> </svg>
