<?xml version="1.0"?>
<svg xmlns="http://www.w3.org/2000/svg" id="icons" enable-background="new 0 0 64 64" height="512px" viewBox="0 0 64 64" width="512px"><g><g><path d="m3 64c.801 0 1.555-.313 2.121-.879l23.333-23.333c.004-.003.008-.006.011-.009.002-.002.002-.004.004-.006l2.106-2.106c.004-.003.008-.006.011-.009.002-.002.002-.004.004-.006l6.354-6.354c.002-.002.004-.003.006-.005.001-.001.001-.002.002-.003l2.109-2.109c.004-.004.008-.006.011-.009.002-.002.002-.004.004-.006l4.235-4.235c.002-.002.004-.003.006-.005.001-.001.001-.002.002-.003l19.802-19.802c.567-.566.879-1.32.879-2.121 0-.802-.313-1.556-.878-2.121-1.133-1.132-3.11-1.133-4.243-.001-.002.002-.003.004-.005.006l-19.798 19.798c-.001.001-.002.001-.003.002-.002.002-.003.004-.005.006l-4.235 4.235c-.002.002-.004.002-.006.004-.003.003-.005.007-.009.011l-2.109 2.109c-.001.001-.002.001-.003.002-.002.002-.003.004-.004.005l-8.476 8.476c-.002.002-.004.002-.006.004-.003.003-.006.007-.009.011l-23.332 23.332c-.566.566-.879 1.32-.879 2.121 0 .802.313 1.556.878 2.121.566.567 1.32.879 2.122.879zm-.707-2.294c-.189-.188-.293-.438-.293-.706 0-.267.104-.518.293-.707l19.226-19.226c.146.305.333.59.578.835.248.249.534.433.841.574l-19.23 19.23c-.38.379-1.036.38-1.415 0zm56.586-56.585c.245.245.531.434.836.578l-17.812 17.812c-.001.001-.002.001-.003.002-.376.378-1.033.378-1.413 0-.188-.189-.293-.44-.293-.707 0-.268.104-.518.293-.706.001-.001.001-.002.002-.003l17.812-17.812c.144.305.333.591.578.836zm-20.384 18.97c.145.305.333.591.578.836s.531.434.836.578l-.131.131c-.379.379-1.035.38-1.414-.001-.189-.188-.293-.438-.293-.706 0-.267.104-.518.293-.707zm-2.124 2.124c.146.305.333.59.578.835.246.246.531.434.836.579l-.128.128c-.39.39-1.024.391-1.414.001-.391-.39-.391-1.025 0-1.415zm-2.119 2.119c.143.303.327.59.576.839s.536.433.837.576l-.133.133c-.389.386-1.021.387-1.411-.003-.389-.39-.39-1.021-.003-1.411zm-2.122 2.122c.144.301.328.588.577.837s.536.434.837.577l-.13.13c-.391.391-1.023.391-1.414 0-.39-.39-.39-1.024 0-1.414zm-2.121 2.121c.144.301.328.588.577.837s.536.434.837.577l-.13.13c-.379.379-1.035.38-1.414-.001-.189-.188-.293-.438-.293-.706 0-.267.104-.518.293-.707zm-2.123 2.123c.146.305.333.59.578.835.246.246.531.434.836.579l-.128.128c-.389.392-1.023.392-1.414-.001-.189-.188-.293-.438-.293-.706 0-.267.104-.518.293-.707zm-2.121 2.121c.146.305.333.59.578.835.249.249.536.434.838.577l-.13.13c-.39.39-1.024.391-1.414.001-.391-.39-.391-1.025 0-1.415zm-2.119 2.119c.143.302.327.589.576.839.249.249.536.433.837.576l-.134.134c-.189.188-.44.293-.707.293h-.001c-.267 0-.517-.104-.706-.294-.188-.188-.293-.438-.293-.705 0-.268.104-.519.293-.708zm38.061-36.646c.189.188.293.438.293.706 0 .267-.104.518-.294.708-.375.379-1.034.376-1.413-.001-.189-.189-.293-.44-.293-.707 0-.268.104-.518.293-.707s.44-.293.707-.293c.268 0 .518.104.707.294z" data-original="#000000" class="active-path" data-old_color="#000000" fill="#FFFFFF"/></g></g> </svg>
