<?xml version="1.0"?>
<svg xmlns="http://www.w3.org/2000/svg" id="Layer_3" enable-background="new 0 0 64 64" height="512px" viewBox="0 0 64 64" width="512px" class=""><g><g><path d="m62 6c0 2.209-7.163 4-16 4s-16-1.791-16-4v8c0 2.209 7.163 4 16 4s16-1.791 16-4z" fill="#f4b2b0" data-original="#F4B2B0" class="" style="fill:#FFFFFF" data-old_color="#f4b2b0"/><path d="m62 40c0 2.209-7.163 4-16 4-1.381 0-2.722-.044-4-.126v10c1.278.082 2.619.126 4 .126 8.837 0 16-1.791 16-4z" fill="#f4b2b0" data-original="#F4B2B0" class="" style="fill:#FFFFFF" data-old_color="#f4b2b0"/><g fill="#b3404a"><path d="m13 36.999c2.85 0 4.999-1.29 4.999-3s-2.149-3-4.999-3c-2.851 0-5 1.29-5 3s2.149 3 5 3zm0-3.999c1.936 0 2.999.751 2.999 1s-1.063 1-2.999 1c-1.937 0-3-.751-3-1 0-.25 1.063-1 3-1z" data-original="#B3404A" class="active-path" style="fill:#FFFFFF" data-old_color="#B3404A"/><path d="m30.6 53.199-2.4-1.8c-2.41-1.806-5.99-1.806-8.4 0l-1.417 1.062c-.926-1.501-2.563-2.461-4.384-2.461 0 0 0 0-.001 0-.321 0-.623.155-.811.416s-.239.596-.138.901l.895 2.683-.894 2.684c-.102.305-.051.64.138.901.188.261.489.415.811.415h.002c1.82 0 3.456-.959 4.381-2.463l1.417 1.063c1.204.903 2.696 1.399 4.201 1.399 1.504 0 2.995-.497 4.199-1.399l2.4-1.8c.252-.189.4-.485.4-.8s-.147-.612-.399-.801zm-15.085 2.415.433-1.298c.068-.205.068-.427 0-.632l-.433-1.298c.638.348 1.149.912 1.426 1.614-.278.702-.789 1.266-1.426 1.614zm11.484-.614c-1.722 1.29-4.28 1.289-6 0l-1.334-1 1.334-1c1.72-1.289 4.278-1.291 6 0l1.334 1z" data-original="#B3404A" class="active-path" style="fill:#FFFFFF" data-old_color="#B3404A"/><path d="m46 1c-5.881 0-17 1.045-17 5h-.001v21.37c-2.257-.245-4.63-.37-6.999-.37-10.437 0-21 2.404-21 7v22c0 4.596 10.563 7 21 7 10.436 0 20.999-2.404 20.999-7v-1.077c.986.046 1.986.077 3.001.077 5.88 0 17-1.045 17-5v-44h-.001c0-3.956-11.119-5-16.999-5zm0 2c9.743 0 14.999 2.129 14.999 3s-5.256 3-14.999 3c-9.744 0-15-2.129-15-3 0-.872 5.256-3 15-3zm15 5.54v5.46h-.001c0 .871-5.256 3-14.999 3-9.744 0-15-2.129-15-3h-.002v-5.46c3.47 1.889 10.661 2.46 15.002 2.46 4.34-.001 11.529-.572 15-2.46zm-39 20.46c11.771 0 18.999 2.912 18.999 5 0 2.087-7.228 5-18.999 5-11.772 0-19-2.912-19-5 0-2.088 7.228-5 19-5zm20.999 5c0-.953-.46-1.811-1.273-2.573.549-.278 1.152-.427 1.772-.427h1.001c.783 0 1.542.229 2.193.664l.503.336c.981.654 2.124 1 3.304 1s2.322-.346 3.304-1l.142-.095c-.451 3.986-3.84 7.094-7.945 7.094-1.046 0-2.05-.207-3.001-.593zm9.693-3.665c-1.301.87-3.082.87-4.387 0l-.502-.335c-.982-.654-2.124-1-3.304-1h-1.001c-1.179 0-2.32.346-3.303 1l-.265.177c-.532-.287-1.123-.555-1.766-.803.755-3.684 3.995-6.374 7.836-6.374 3.917 0 7.18 2.832 7.863 6.555zm-44.692 28.919-.002-13.93c3.787 1.071 8.793 1.676 14.002 1.676 5.207 0 10.212-.604 13.998-1.675v13.93c-3.281 1.003-8.059 1.745-13.998 1.745-5.94-.001-10.719-.743-14-1.746zm29.998-.719.001-14.536c.01-.328-.141-.64-.404-.835-.264-.194-.605-.248-.917-.143-3.699 1.257-9.049 1.978-14.678 1.979-5.631 0-10.98-.721-14.68-1.979-.303-.102-.643-.038-.903.15-.263.187-.417.506-.417.829v14.535c-1.947-.828-3-1.741-3-2.536v-18.836c3.549 2.528 11.306 3.836 19 3.836 7.693 0 15.45-1.308 18.999-3.836v18.836c0 .795-1.054 1.709-3.001 2.536zm8.002-5.536c-1.016 0-2.016-.032-3.001-.079v-7.998c.986.046 1.986.077 3.001.077 4.34 0 11.529-.571 15-2.459v7.459c0 .871-5.257 3-15 3zm0-10c-1.016 0-2.016-.032-3.001-.079v-2.393c.964.304 1.966.472 3.001.472 5.514 0 10-4.486 10-10s-4.486-10-10-10c-4.719 0-8.703 3.251-9.735 7.735-1.58-.461-3.364-.832-5.266-1.11v-11.085c3.47 1.889 10.661 2.46 15.002 2.46 4.34 0 11.529-.571 15-2.459v23.46c-.001.87-5.258 2.999-15.001 2.999z" data-original="#B3404A" class="active-path" style="fill:#FFFFFF" data-old_color="#B3404A"/></g></g></g> </svg>
