<?xml version="1.0"?>
<svg xmlns="http://www.w3.org/2000/svg" viewBox="0 0 512 512" width="512px" height="512px" class=""><g><g id="Out_line" data-name="Out line"><path d="M439.58569,292.272a19.95466,19.95466,0,0,0-4.66186-35.01074A31.79962,31.79962,0,0,0,440,240V224a24,24,0,0,0-48,0,8,8,0,0,1-16,0,24,24,0,0,0-48,0v16a31.79962,31.79962,0,0,0,5.07617,17.26123,19.95466,19.95466,0,0,0-4.66186,35.01074L312,308.6864V240a8.00008,8.00008,0,0,0-8-8H272a8.00008,8.00008,0,0,0-8,8v24H248V240a8.00008,8.00008,0,0,0-8-8H208a8.00008,8.00008,0,0,0-8,8v63.97827a39.91555,39.91555,0,0,0-13.28125,17.48511,39.89592,39.89592,0,0,0-21.82422.11706L139.31348,295.999a16.02894,16.02894,0,0,0-18.81543-2.81518L107.31348,279.999A16.02162,16.02162,0,0,0,84.68555,280L72.001,292.68555A15.99888,15.99888,0,0,0,72,315.31348l13.17773,13.178A16.01917,16.01917,0,0,0,88,347.31348l23.793,23.79333A31.974,31.974,0,0,0,136,424H293.69775c14.78663,20.10144,37.99024,32,64.12549,32h52.35352c32.97168,0,61.292-18.92334,73.91015-49.38525,12.61719-30.46192,5.97266-63.86866-17.34179-87.18311ZM340,280a4,4,0,0,1,0-8h88a4,4,0,0,1,0,8Zm4-56a8,8,0,0,1,16,0,24,24,0,0,0,48,0,8,8,0,0,1,16,0v16a16.01833,16.01833,0,0,1-16,16H360a16.01833,16.01833,0,0,1-16-16ZM216,248h16v24a8.00008,8.00008,0,0,0,8,8h32a8.00008,8.00008,0,0,0,8-8V248h16v74.8335a32.06023,32.06023,0,0,0-37.87891-7.68653A40.01115,40.01115,0,0,0,216,296.804ZM96,291.31348l12.686,12.68628L96.00024,316.686,83.31445,304Zm32,16,4.68628,4.68628-18.34351,18.3435,11.31446,11.31348L144,323.31384l6.1748,6.17493A39.92033,39.92033,0,0,0,136,360a31.8448,31.8448,0,0,0-10.80444,1.88159L99.31445,336ZM136,408a16,16,0,1,1,6.39746-30.66553,7.99979,7.99979,0,0,0,10.80566-9.82812,23.99692,23.99692,0,0,1,34.94336-28.20215,7.99955,7.99955,0,0,0,12.00879-6.00586,23.99746,23.99746,0,0,1,46.93457-3.83984,7.99965,7.99965,0,0,0,13.43653,3.39843,15.99542,15.99542,0,0,1,26.48852,5.6073c-11.18384,20.68921-12.58667,45.25135-3.1018,68.15052.1936.46728.40234.92334.603,1.38525Zm333.30469-7.5083A63.01011,63.01011,0,0,1,410.17676,440H357.82324a63.99971,63.99971,0,0,1-45.2539-109.25488L347.314,296h3.29883A116.37968,116.37968,0,0,0,328,365.25488V392h16V365.25488A100.53635,100.53635,0,0,1,371.395,296h17.21A100.53635,100.53635,0,0,1,416,365.25488V392h16V365.25488A116.37968,116.37968,0,0,0,409.38721,296H420.686l34.74462,34.74512A63.00948,63.00948,0,0,1,469.30469,400.4917Z" data-original="#000000" class="active-path" data-old_color="#000000" fill="#FFFFFF"/><path d="M492.03906,57.09424A7.99671,7.99671,0,0,0,488,56.00452V56H152a8.00073,8.00073,0,0,0-3.92188,1.02734L20.19482,128.96167l-.02246.0127-.09424.053.00171.00318A7.99307,7.99307,0,0,0,16,136V392a8.00008,8.00008,0,0,0,8,8H88V384H32V224H312V208H32V144H352v40h16V140.67871l112-63V312h16V64A8.00037,8.00037,0,0,0,492.03906,57.09424ZM323.33936,128,367.832,102.97266l-7.84375-13.94532L290.70435,128H256.13916l44.49268-25.02734-7.84375-13.94532L223.50415,128H188.9397l44.49194-25.02734-7.84375-13.94532L156.30493,128H121.7395l44.49195-25.02734L158.3877,89.02734,89.10474,128H54.54L154.0957,72H457.46l-99.55542,56Z" data-original="#000000" class="active-path" data-old_color="#000000" fill="#FFFFFF"/><rect x="384" y="152" width="16" height="40" data-original="#000000" class="active-path" data-old_color="#000000" fill="#FFFFFF"/><rect x="416" y="136" width="16" height="48" data-original="#000000" class="active-path" data-old_color="#000000" fill="#FFFFFF"/><rect x="448" y="120" width="16" height="128" data-original="#000000" class="active-path" data-old_color="#000000" fill="#FFFFFF"/><path d="M244,344a28.03216,28.03216,0,0,0-25.34668,16.11865c-.876-.07226-1.759-.11865-2.65332-.11865a32.03635,32.03635,0,0,0-32,32h16a16,16,0,0,1,32,0h16a31.99155,31.99155,0,0,0-14.07544-26.495A11.99036,11.99036,0,0,1,256,372h16A28.03146,28.03146,0,0,0,244,344Z" data-original="#000000" class="active-path" data-old_color="#000000" fill="#FFFFFF"/></g></g> </svg>
