<?xml version="1.0"?>
<svg xmlns="http://www.w3.org/2000/svg" id="_x33_0" enable-background="new 0 0 64 64" height="512px" viewBox="0 0 64 64" width="512px" class=""><g><path d="m53.741 18.483-4.271 2.669c-.24.15-4.357 2.738-7.44 5.349 2.211-7.352 4.83-12.979 4.876-13.075l2.159-4.591-3.74 3.428c-.272.25-3.861 3.596-7.096 9.031.519-6.787 1.748-16.044 1.763-16.161l.458-3.433-2.219 2.66c-3.106 3.727-5.312 8.54-6.419 13.81-1.084-4.621-2.991-10.147-6.044-13.81l-2.218-2.661.458 3.433c.015.118 1.244 9.375 1.763 16.161-3.235-5.435-6.824-8.781-7.096-9.031l-3.742-3.43 2.161 4.593c.046.097 2.666 5.723 4.877 13.077-3.083-2.612-7.202-5.201-7.442-5.351l-4.271-2.669 2.927 4.098c.094.132 8.932 12.563 11.484 20.432-.885.067-1.636.712-1.812 1.595l-.625 3.126c-.11.548.017 1.121.346 1.573.33.451.838.746 1.395.808l1.027.114v8.772c0 2.206 1.794 4 4 4h6c2.206 0 4-1.794 4-4v-7.216l.606.067c.075.009.15.013.226.013.539 0 1.051-.215 1.433-.609.434-.447.631-1.058.543-1.674l-.694-4.864c-.13-.913-.882-1.609-1.786-1.699 2.55-7.868 11.392-20.305 11.486-20.437zm-14.608 26.517.274 1.918-14.606-1.826.018-.092zm-2.111-2h-2.022v-4c0-8.783 4.319-16.228 7.704-20.713-2.304 6.006-5.457 15.787-5.682 24.713zm-10.483-33.794c3.069 5.937 4.461 14.038 4.461 16.794v4h2v-4c0-6.29 1.613-12.347 4.506-17.164-.576 4.732-1.444 12.5-1.5 16.736-1.729 3.871-3.006 8.418-3.006 13.428v4h-2v-4c0-5.01-1.277-9.557-3.005-13.428-.055-4.127-.881-11.608-1.456-16.366zm2.461 29.794v4h-2.022c-.225-8.933-3.384-18.723-5.688-24.728 3.386 4.479 7.71 11.924 7.71 20.728zm-5.946-8.595c.57 2.25 1.064 4.587 1.412 6.926-2.009-4.131-4.684-8.472-6.712-11.578 2.149 1.56 4.358 3.348 5.3 4.652zm3.946 28.595v-8.549l2 .222v10.327c-1.103 0-2-.897-2-2zm6-7.883v9.883h-2v-10.105zm4 7.883c0 1.103-.897 2-2 2v-9.661l2 .222zm-12.806-10.874.213-1.068 15.293 1.912.128.894zm15.341-10.797c.348-2.339.842-4.676 1.412-6.926.943-1.304 3.151-3.091 5.299-4.65-2.028 3.105-4.702 7.446-6.711 11.576z" data-original="#000000" class="active-path" data-old_color="#000000" fill="#FFFFFF"/></g> </svg>
