<?xml version="1.0"?>
<svg xmlns="http://www.w3.org/2000/svg" id="Layer_1_1_" enable-background="new 0 0 64 64" height="512px" viewBox="0 0 64 64" width="512px" class=""><g><path d="m61 56v-3c0-.552-.448-1-1-1h-1v-16h2c.379 0 .725-.214.895-.553s.133-.744-.095-1.047l-2.8-3.733v-12.667h1c.464 0 .867-.319.973-.77.106-.452-.111-.917-.526-1.125l-28-14c-.281-.141-.613-.141-.895 0l-28 14c-.415.208-.632.673-.526 1.125.107.451.51.77.974.77h1v12.667l-2.8 3.733c-.228.303-.264.708-.095 1.047s.516.553.895.553h2v16h-1c-.552 0-1 .448-1 1v3c-.552 0-1 .448-1 1v4c0 .552.448 1 1 1h58c.552 0 1-.448 1-1v-4c0-.552-.448-1-1-1zm-4 0v-2h2v2zm0-4h-1c-.552 0-1 .448-1 1v3h-1v-3-5h-2v4h-3c-.552 0-1 .448-1 1v3h-2v-6h3v-2h-8v2h3v6h-2v-3c0-.552-.448-1-1-1h-3v-4h-2v5 3h-1v-3c0-.552-.448-1-1-1h-1v-16h24zm-5 4h-2v-2h2zm-14-2h2v2h-2zm-5 0v2h-2v-2zm-1-49.882 23.764 11.882h-47.528zm25 13.882v12h-50v-12zm-50.5 14h51l1.5 2h-54zm.5 4h24v16h-1c-.552 0-1 .448-1 1v3h-3v-14c0-.552-.448-1-1-1h-12c-.552 0-1 .448-1 1v14h-3v-3c0-.552-.448-1-1-1h-1zm7 20v-13h4v13zm6-13h4v13h-4zm-15 11h2v2h-2zm55 6h-56v-2h56z" data-original="#000000" class="active-path" data-old_color="#000000" fill="#FFFFFF"/><path d="m14 28h10c.552 0 1-.448 1-1v-6c0-.552-.448-1-1-1h-10c-.552 0-1 .448-1 1v6c0 .552.448 1 1 1zm1-6h8v4h-8z" data-original="#000000" class="active-path" data-old_color="#000000" fill="#FFFFFF"/><path d="m40 28h10c.552 0 1-.448 1-1v-6c0-.552-.448-1-1-1h-10c-.552 0-1 .448-1 1v6c0 .552.448 1 1 1zm1-6h8v4h-8z" data-original="#000000" class="active-path" data-old_color="#000000" fill="#FFFFFF"/><path d="m40 46h10c.552 0 1-.448 1-1v-6c0-.552-.448-1-1-1h-10c-.552 0-1 .448-1 1v6c0 .552.448 1 1 1zm1-6h8v4h-8z" data-original="#000000" class="active-path" data-old_color="#000000" fill="#FFFFFF"/></g> </svg>
