<?xml version="1.0"?>
<svg xmlns="http://www.w3.org/2000/svg" xmlns:xlink="http://www.w3.org/1999/xlink" version="1.1" id="Capa_1" x="0px" y="0px" viewBox="0 0 445.993 445.993" style="enable-background:new 0 0 445.993 445.993;" xml:space="preserve" width="512px" height="512px" class=""><g><g>
	<g>
		<path d="M346.323,130.793c-0.8-2.4-3.2-4-5.6-4.8c-2.4-0.8-4.8,0-7.2,1.6l-12.8,10.4c4-20,8-47.2,0-59.2c-3.2-4.8-7.2-7.2-12.8-8    c-4-0.8-7.2,2.4-8,5.6c0,0-4.8,16.8-16,32c0.8-28-2.4-75.2-24.8-96.8c-9.6-9.6-22.4-12.8-36.8-11.2c-3.2,0.8-5.6,2.4-6.4,5.6    c-0.8,3.2,0,5.6,1.6,8c0,0,11.2,12.8,10.4,32c-0.8,16.8-10.4,34.4-28.8,52.8c-4-8.8-8-24.8,0-43.2c1.6-3.2,0.8-6.4-1.6-8.8    c-2.4-2.4-5.6-3.2-8.8-2.4c-0.8,0-56.8,19.2-63.2,76c-10.4-8-25.6-15.2-42.4-11.2c-2.4,0.8-4.8,2.4-5.6,5.6c-0.8,3.2,0,5.6,1.6,8    c0,0.8,34.4,40.8,22.4,97.6c0,1.6-7.2,44,20,78.4c20.8,25.6,54.4,39.2,100.8,40.8c2.4,0,5.6,0,8,0c58.4,0,89.6-25.6,105.6-48    C368.723,245.193,364.723,177.193,346.323,130.793z M323.123,281.193c-20.8,29.6-54.4,43.2-100,41.6    c-41.6-1.6-71.2-13.6-88.8-35.2c-23.2-28.8-16.8-65.6-16.8-65.6c9.6-44-5.6-79.2-16-97.6c14.4,4,25.6,18.4,26.4,18.4    c2.4,2.4,5.6,4,8.8,2.4c3.2-1.6,5.6-4.8,4.8-8c-3.2-39.2,20.8-60.8,36.8-71.2c-4,27.2,10.4,48.8,11.2,49.6    c1.6,1.6,3.2,3.2,5.6,3.2s4.8-0.8,6.4-1.6c27.2-21.6,41.6-45.6,42.4-69.6c0.8-12-2.4-22.4-5.6-29.6c4,0.8,7.2,3.2,9.6,5.6    c22.4,20.8,20.8,83.2,18.4,105.6c0,3.2,1.6,6.4,4,8c2.4,1.6,6.4,1.6,8.8-0.8c15.2-12,24.8-29.6,30.4-41.6    c1.6,13.6-3.2,40-10.4,62.4c-0.8,3.2,0,7.2,3.2,8.8c3.2,1.6,6.4,1.6,9.6-0.8l23.2-19.2    C348.723,187.593,350.323,242.793,323.123,281.193z" data-original="#000000" class="active-path" data-old_color="#000000" fill="#FFFFFF"/>
	</g>
</g><g>
	<g>
		<path d="M375.923,389.193l-24-5.6l24-5.6c8-1.6,13.6-9.6,11.2-18.4l-5.6-23.2c-0.8-4-3.2-8-7.2-10.4c-4-2.4-8-3.2-12-2.4    l-139.2,32l-140-31.2c-4-0.8-8.8,0-12,2.4c-3.2,2.4-6.4,5.6-7.2,10.4l-5.6,23.2c-1.6,8.8,3.2,16.8,12,19.2l24,5.6l-24,5.6    c-8.8,1.6-14.4,10.4-12,19.2l5.6,23.2c0.8,4,3.2,8,7.2,10.4c2.4,1.6,5.6,2.4,8.8,2.4c0.8,0,2.4,0,3.2,0l140-32.8l140,31.2    c0.8,0,2.4,0,3.2,0c3.2,0,5.6-0.8,8.8-2.4c4-2.4,6.4-5.6,7.2-10.4l5.6-23.2C389.523,399.593,384.723,391.593,375.923,389.193z     M74.323,362.793l5.6-23.2l106.4,24l-54.4,12L74.323,362.793z M79.923,428.393l-5.6-23.2l292-65.6l5.6,23.2L79.923,428.393z     M366.323,428.393l-106.4-24l54.4-12l57.6,12.8L366.323,428.393z" data-original="#000000" class="active-path" data-old_color="#000000" fill="#FFFFFF"/>
	</g>
</g><g>
	<g>
		<path d="M296.723,188.393c-1.6-4-4.8-5.6-8.8-5.6c-4,0.8-6.4,3.2-7.2,7.2c-0.8,9.6-7.2,16.8-12.8,21.6    c0.8-59.2-50.4-74.4-51.2-74.4c-2.4-0.8-5.6,0-8,2.4c-2.4,2.4-3.2,4.8-2.4,8c6.4,22.4,0.8,48.8-4,64c-14.4-12.8-36-12.8-37.6-12.8    c-1.6-0.8-4,0.8-5.6,3.2c-3.2,5.6-5.6,43.2,12.8,69.6c8.8,12.8,26.4,28,59.2,28c3.2,0,7.2,0,11.2-0.8c24-2.4,41.6-12,52-28    C315.123,237.993,297.523,189.993,296.723,188.393z M280.723,262.793c-7.2,12-20.8,19.2-40,20.8c-23.2,2.4-40.8-3.2-52-16    c-14.4-16.8-16-41.6-15.2-52.8c8,1.6,20.8,4.8,25.6,16c1.6,3.2,4,4.8,7.2,4.8s6.4-1.6,7.2-4.8c0.8-1.6,15.2-36,12-72    c13.6,8.8,31.2,28,25.6,67.2c-0.8,3.2,0.8,5.6,3.2,7.2c2.4,1.6,5.6,2.4,8,1.6c0.8,0,15.2-5.6,24.8-18.4    C289.523,230.793,289.523,249.193,280.723,262.793z" data-original="#000000" class="active-path" data-old_color="#000000" fill="#FFFFFF"/>
	</g>
</g></g> </svg>
