<?xml version="1.0"?>
<svg xmlns="http://www.w3.org/2000/svg" xmlns:xlink="http://www.w3.org/1999/xlink" version="1.1" id="Capa_1" x="0px" y="0px" viewBox="0 0 512 512" style="enable-background:new 0 0 512 512;" xml:space="preserve" width="512px" height="512px"><g><g>
	<g>
		<path d="M498.838,177.883L329.136,8.181c-2.813-2.813-6.621-4.395-10.605-4.395H203.672c-12.012,0-23.32,4.688-31.816,13.184    l-12.422,12.422c-8.496,8.496-13.184,19.805-13.184,31.816c0,12.026,4.688,23.335,13.184,31.816l212.124,212.139    c17.549,17.549,46.08,17.565,63.647,0l63.633-63.633C516.387,223.981,516.387,195.431,498.838,177.883z" data-original="#000000" class="active-path" data-old_color="#000000" fill="#FFFFFF"/>
	</g>
</g><g>
	<g>
		<path d="M471.416,56.813l-21.211-21.211c-5.654-5.654-13.183-8.759-21.21-8.759c-8.027,0-15.571,3.105-21.226,8.76l-4.395,4.395    l63.647,63.647l4.395-4.395C483.12,87.546,483.12,68.518,471.416,56.813z" data-original="#000000" class="active-path" data-old_color="#000000" fill="#FFFFFF"/>
	</g>
</g><g>
	<g>
		<polygon points="234.123,210.142 106.832,337.433 170.474,401.061 297.759,273.782   " data-original="#000000" class="active-path" data-old_color="#000000" fill="#FFFFFF"/>
	</g>
</g><g>
	<g>
		<path d="M85.621,358.644L8.767,435.786c-11.689,11.689-11.689,30.732,0,42.422l21.211,21.211c11.732,11.73,30.696,11.724,42.422,0    l76.863-77.147L85.621,358.644z" data-original="#000000" class="active-path" data-old_color="#000000" fill="#FFFFFF"/>
	</g>
</g></g> </svg>
