<?xml version="1.0"?>
<svg xmlns="http://www.w3.org/2000/svg" id="Capa_1" enable-background="new 0 0 512 512" height="512px" viewBox="0 0 512 512" width="512px"><g><g><path d="m97.709 134.598c1.589 0 3.191-.503 4.551-1.543l13.61-10.412c3.29-2.517 3.917-7.225 1.4-10.514-2.517-3.291-7.224-3.916-10.514-1.4l-13.61 10.412c-3.29 2.517-3.917 7.225-1.4 10.514 1.477 1.93 3.707 2.943 5.963 2.943z" data-original="#000000" class="active-path" data-old_color="#000000" fill="#FFFFFF"/><path d="m231.652 121.141-13.611 10.412c-3.29 2.517-3.917 7.224-1.4 10.514 1.477 1.931 3.707 2.943 5.963 2.943 1.589 0 3.191-.503 4.551-1.543l13.611-10.412c3.29-2.517 3.917-7.224 1.4-10.514s-7.224-3.916-10.514-1.4z" data-original="#000000" class="active-path" data-old_color="#000000" fill="#FFFFFF"/><path d="m385.219 92.282c1.477 1.931 3.707 2.943 5.963 2.943 1.589 0 3.191-.503 4.551-1.543l13.61-10.412c3.29-2.517 3.917-7.225 1.4-10.514-2.517-3.29-7.224-3.916-10.514-1.4l-13.61 10.412c-3.29 2.517-3.917 7.225-1.4 10.514z" data-original="#000000" class="active-path" data-old_color="#000000" fill="#FFFFFF"/><path d="m164.771 198.354c-1.885-3.69-6.402-5.151-10.091-3.267s-5.151 6.402-3.267 10.091l5.165 10.109c1.326 2.597 3.957 4.09 6.685 4.09 1.148 0 2.313-.265 3.406-.823 3.688-1.885 5.151-6.402 3.267-10.091z" data-original="#000000" class="active-path" data-old_color="#000000" fill="#FFFFFF"/><path d="m182.007 74.201c3.688-1.884 5.151-6.402 3.267-10.091l-2.616-5.121c-1.885-3.689-6.402-5.153-10.091-3.267-3.688 1.884-5.151 6.402-3.267 10.091l2.616 5.121c1.326 2.597 3.957 4.09 6.685 4.09 1.148 0 2.313-.264 3.406-.823z" data-original="#000000" class="active-path" data-old_color="#000000" fill="#FFFFFF"/><path d="m476.487 0h-371.978c-4.143 0-7.5 3.357-7.5 7.5s3.357 7.5 7.5 7.5h371.979c11.31 0 20.512 9.202 20.512 20.513v265.695c0 11.311-9.202 20.513-20.513 20.513h-89.017c3.82-5.681 7.057-11.717 9.698-18h65.767c8.858 0 16.064-7.206 16.064-16.064 0-29.451 0-208.053 0-238.592.001-8.859-7.205-16.065-16.063-16.065-17.134 0-396.824 0-413.871 0-8.859 0-16.065 7.206-16.065 16.064v238.592c0 8.858 7.206 16.064 16.064 16.064h153.226c2.654 6.326 5.92 12.346 9.716 18h-176.493c-11.311 0-20.513-9.202-20.513-20.513v-265.694c0-11.311 9.202-20.513 20.513-20.513h39.009c4.143 0 7.5-3.357 7.5-7.5s-3.358-7.5-7.501-7.5h-39.008c-19.582 0-35.513 15.931-35.513 35.513v265.695c0 19.582 15.931 35.513 35.513 35.513h188.672c13.75 14.056 31.517 24.367 51.86 29.027v9.33h-5.753c-4.143 0-7.5 3.357-7.5 7.5v50.967c0 4.143 3.357 7.5 7.5 7.5s7.5-3.357 7.5-7.5v-17.984h43.944v59.468c0 12.115-9.856 21.972-21.973 21.972-12.115 0-21.972-9.856-21.972-21.972v-11.496c0-4.143-3.357-7.5-7.5-7.5s-7.5 3.357-7.5 7.5v11.496c0 20.387 16.586 36.972 36.973 36.972s36.972-16.585 36.972-36.972v-92.45c0-4.143-3.357-7.5-7.5-7.5h-5.753v-9.33c19.6-4.498 37.627-14.669 51.737-29.027h101.267c19.582 0 35.513-15.931 35.513-35.513v-265.696c0-19.582-15.931-35.513-35.513-35.513zm-13.551 288.721h-60.73c2.15-8.457 3.276-17.194 3.276-26.009 0-30.43-12.745-58.751-35.473-79.008l93.991-71.903v175.856c0 .586-.478 1.064-1.064 1.064zm1.064-195.806-106.31 81.327c-4.591-3.018-9.393-5.653-14.363-7.9l120.673-92.314zm0-43.851v6.078l-137.574 105.244c-9.075-2.347-18.527-3.5-28.169-3.38-29.487.411-56.142 12.944-75.114 32.884l-27.801-54.524 114.205-87.366h153.389c.586 0 1.064.478 1.064 1.064zm-228.518-1.064-60.931 46.612c-.001 0-.099-.022-.1-.022l-23.8-46.59zm-101.675 0 27.286 53.413c2.039 3.993 5.717 6.851 10.089 7.841 4.371.992 8.923-.004 12.482-2.728l76.506-58.526h24.689l-98.632 75.453c-5.78 4.422-7.572 12.337-4.262 18.82l30.823 60.338c-3.389 4.891-6.377 10.081-8.914 15.526l-31.516-61.695c-2.039-3.992-5.716-6.851-10.088-7.841-4.373-.99-8.924.003-12.484 2.728l-101.786 77.868v-18.887l99.225-75.906c5.78-4.422 7.572-12.337 4.262-18.82l-34.526-67.584zm-84.743 0h51.05l37.996 74.49-90.11 68.934v-142.36c0-.586.478-1.064 1.064-1.064zm0 240.721c-.587 0-1.064-.478-1.064-1.064v-39.573l110.9-84.839-4.557-5.957 4.657 5.979 38.02 74.425c-3.951 16.292-4.065 33.843.275 51.029zm228.728 111.84v-10.482h43.944v10.482zm41.523-49.25c-6.276 1.379-10.832 7.078-10.832 13.551v10.217h-17.438v-10.279c0-6.534-4.489-12.089-10.918-13.509-30.582-6.747-46.305-26.511-47.717-27.735-51.43-57.013-12.532-150.454 66.056-151.552 50.548-.73 92.016 39.964 92.016 90.708 0 20.799-7.216 41.118-20.318 57.215-12.923 15.875-30.98 27.02-50.849 31.384z" data-original="#000000" class="active-path" data-old_color="#000000" fill="#FFFFFF"/><path d="m364.553 270.408c-4.031-.955-8.071 1.539-9.026 5.569-6.146 25.94-29.075 44.058-55.762 44.058-31.608 0-57.323-25.715-57.323-57.323 0-31.607 25.715-57.322 57.323-57.322 26.687 0 49.616 18.117 55.762 44.058.955 4.032 4.996 6.526 9.026 5.569 4.031-.955 6.524-4.996 5.569-9.026-7.755-32.737-36.687-55.601-70.357-55.601-39.879 0-72.323 32.443-72.323 72.322s32.444 72.323 72.323 72.323c33.67 0 62.603-22.863 70.357-55.601.955-4.03-1.538-8.071-5.569-9.026z" data-original="#000000" class="active-path" data-old_color="#000000" fill="#FFFFFF"/></g></g> </svg>
